<svg
  xmlns="http://www.w3.org/2000/svg"
  width="512"
  height="512"
  viewBox="0 0 540 540"
>
  <path
    xmlns="http://www.w3.org/2000/svg"
    d="M437 75C388.7 26.6 324.4 0 256 0S123.3 26.6 75 75A254.3 254.3 0 000 256c0 68.4 26.6 132.7 75 181 48.3 48.4 112.6 75 181 75s132.7-26.6 181-75a254.3 254.3 0 0075-181c0-68.4-26.6-132.7-75-181zm-70.3 256.4a25 25 0 01-35.3 35.3L256 291.4l-75.4 75.3a25 25 0 01-35.3 0 25 25 0 010-35.3l75.3-75.4-75.3-75.4a25 25 0 0135.3-35.3l75.4 75.3 75.4-75.3a25 25 0 1135.3 35.3L291.4 256zm0 0"
    fill="#950909"
    data-original="#000000"
  />
</svg>
